<svg xmlns="http://www.w3.org/2000/svg" viewBox="0 0 700 1100">
  <path d="M289 190 C286 118 414 118 417 190 C414 252 389 289 350 292 C311 289 292 252 289 190 Z" fill="#1a1218"/>
  <path d="M292 188 C315 152 384 152 410 188 C392 171 319 168 292 188 Z" fill="#4b3540" opacity=".5"/>
  <path d="M289 198 C279 247 290 294 320 326 C297 327 270 305 263 279 C258 247 267 216 289 198 Z" fill="#1a1218"/>
  <path d="M411 198 C421 247 410 294 380 326 C403 327 430 305 437 279 C442 247 433 216 411 198 Z" fill="#1a1218"/>
</svg>
