<svg xmlns="http://www.w3.org/2000/svg" viewBox="0 0 700 1100">
  <defs><linearGradient id="g" x1="0" x2="1" y1="0" y2="1"><stop stop-color="#211927"/><stop offset="1" stop-color="#060509"/></linearGradient></defs>
  <path d="M275 780 L333 780 L334 1018 C318 1037 286 1039 263 1028 Z" fill="url(#g)"/>
  <path d="M425 780 L367 780 L366 1018 C382 1037 414 1039 437 1028 Z" fill="url(#g)"/>
  <path d="M262 1026 L338 1026 L338 1046 L250 1046 C250 1038 254 1031 262 1026 Z" fill="#060509"/>
  <path d="M438 1026 L362 1026 L362 1046 L450 1046 C450 1038 446 1031 438 1026 Z" fill="#060509"/>
  <path d="M283 795 L324 795 M376 795 L417 795" stroke="#8d7aa3" stroke-width="4" opacity=".35"/>
</svg>
