<svg xmlns="http://www.w3.org/2000/svg" viewBox="0 0 700 1100">
  <defs>
    <linearGradient id="skin" x1="0" x2="1" y1="0" y2="1">
      <stop offset="0" stop-color="#e5b69f"/>
      <stop offset="1" stop-color="#b98678"/>
    </linearGradient>
    <filter id="soft" x="-20%" y="-20%" width="140%" height="140%">
      <feDropShadow dx="0" dy="18" stdDeviation="18" flood-color="#000" flood-opacity=".28"/>
    </filter>
  </defs>
  <g filter="url(#soft)">
    <ellipse cx="350" cy="1020" rx="118" ry="22" fill="#000" opacity=".24"/>
    <path d="M295 392 C269 510 266 641 282 795 L292 1000 C294 1034 330 1034 332 1000 L341 790 L359 790 L368 1000 C370 1034 406 1034 408 1000 L418 795 C434 641 431 510 405 392 Z" fill="url(#skin)"/>
    <path d="M291 360 C246 394 220 452 210 514 C207 533 229 542 240 526 C263 490 284 456 312 420 Z" fill="url(#skin)"/>
    <path d="M409 360 C454 394 480 452 490 514 C493 533 471 542 460 526 C437 490 416 456 388 420 Z" fill="url(#skin)"/>
    <path d="M292 357 C307 319 326 300 350 300 C374 300 393 319 408 357 C405 418 386 462 350 463 C314 462 295 418 292 357 Z" fill="url(#skin)"/>
    <rect x="324" y="266" width="52" height="69" rx="24" fill="url(#skin)"/>
    <circle cx="350" cy="211" r="66" fill="url(#skin)"/>
    <path d="M294 190 C306 142 351 121 397 145 C423 170 413 215 395 239 C385 192 335 176 294 190 Z" fill="#2c2025" opacity=".84"/>
    <circle cx="328" cy="207" r="6" fill="#2f2025"/>
    <circle cx="373" cy="207" r="6" fill="#2f2025"/>
    <path d="M330 245 C344 252 359 252 371 245" fill="none" stroke="#7f4a55" stroke-width="5" stroke-linecap="round"/>
  </g>
</svg>
