<svg xmlns="http://www.w3.org/2000/svg" viewBox="0 0 700 1100">
  <defs>
    <linearGradient id="skin" x1="255" x2="455" y1="120" y2="1035" gradientUnits="userSpaceOnUse">
      <stop offset="0" stop-color="#f4c8b4"/>
      <stop offset="0.55" stop-color="#e4a990"/>
      <stop offset="1" stop-color="#c98272"/>
    </linearGradient>
    <linearGradient id="shade" x1="0" x2="1" y1="0" y2="1">
      <stop offset="0" stop-color="#fff" stop-opacity=".34"/>
      <stop offset="1" stop-color="#5b1d2a" stop-opacity=".12"/>
    </linearGradient>
    <filter id="shadow" x="-30%" y="-30%" width="160%" height="160%">
      <feDropShadow dx="0" dy="24" stdDeviation="18" flood-color="#000" flood-opacity=".23"/>
    </filter>
  </defs>

  <g filter="url(#shadow)">
    <ellipse cx="350" cy="1038" rx="96" ry="18" fill="#000" opacity=".18"/>

    <path d="M318 451 C300 548 296 661 304 782 L310 1000 C311 1029 341 1035 348 1006 L351 820 L356 1006 C363 1035 393 1029 394 1000 L399 782 C407 661 402 548 382 451 Z" fill="url(#skin)"/>
    <path d="M315 449 C290 563 286 673 296 799 C317 811 337 812 351 799 L350 469 Z" fill="url(#shade)" opacity=".32"/>
    <path d="M385 449 C410 563 414 673 404 799 C383 811 363 812 349 799 L350 469 Z" fill="#7b3e4b" opacity=".08"/>

    <path d="M286 360 C302 309 327 287 350 287 C373 287 398 309 414 360 C410 432 391 494 350 498 C309 494 290 432 286 360 Z" fill="url(#skin)"/>
    <path d="M306 350 C326 371 374 371 394 350" fill="none" stroke="#fff" stroke-width="6" stroke-linecap="round" opacity=".22"/>
    <path d="M350 382 C338 428 338 463 350 493 C362 463 362 428 350 382 Z" fill="#a96572" opacity=".12"/>

    <path d="M286 368 C242 405 220 471 208 548 C205 569 231 577 241 558 C264 513 286 466 316 425 Z" fill="url(#skin)"/>
    <path d="M414 368 C458 405 480 471 492 548 C495 569 469 577 459 558 C436 513 414 466 384 425 Z" fill="url(#skin)"/>
    <path d="M210 544 C203 580 199 621 204 660 C207 684 236 684 239 660 C242 624 242 585 239 556 Z" fill="url(#skin)"/>
    <path d="M490 544 C497 580 501 621 496 660 C493 684 464 684 461 660 C458 624 458 585 461 556 Z" fill="url(#skin)"/>

    <rect x="323" y="266" width="54" height="72" rx="24" fill="url(#skin)"/>
    <ellipse cx="350" cy="209" rx="62" ry="70" fill="url(#skin)"/>
    <path d="M319 196 C334 189 366 189 381 196" fill="none" stroke="#7a4b50" stroke-width="4" stroke-linecap="round" opacity=".28"/>
    <path d="M328 245 C341 253 360 253 373 245" fill="none" stroke="#854a5a" stroke-width="5" stroke-linecap="round" opacity=".55"/>
  </g>
</svg>
