<svg xmlns="http://www.w3.org/2000/svg" viewBox="0 0 700 1100">
  <defs>
    <linearGradient id="skin" x1="0" x2="1" y1="0" y2="1">
      <stop offset="0" stop-color="#f2c7b7"/>
      <stop offset="1" stop-color="#d99f8f"/>
    </linearGradient>
    <filter id="soft" x="-20%" y="-20%" width="140%" height="140%">
      <feDropShadow dx="0" dy="18" stdDeviation="18" flood-color="#000" flood-opacity=".28"/>
    </filter>
  </defs>
  <g filter="url(#soft)">
    <ellipse cx="350" cy="1020" rx="122" ry="22" fill="#000" opacity=".24"/>
    <path d="M291 404 C250 514 238 649 254 792 L270 1003 C272 1036 313 1036 316 1002 L333 778 L352 779 L382 1001 C387 1037 427 1033 427 998 L420 790 C455 630 438 505 408 404 Z" fill="url(#skin)"/>
    <path d="M279 360 C235 396 207 454 194 518 C190 538 214 548 225 531 C249 491 270 456 304 424 Z" fill="url(#skin)"/>
    <path d="M421 360 C465 396 493 454 506 518 C510 538 486 548 475 531 C451 491 430 456 396 424 Z" fill="url(#skin)"/>
    <path d="M284 360 C296 317 324 292 350 292 C376 292 405 317 417 360 C412 419 392 463 350 467 C308 463 289 419 284 360 Z" fill="url(#skin)"/>
    <rect x="322" y="266" width="56" height="70" rx="26" fill="url(#skin)"/>
    <circle cx="350" cy="210" r="70" fill="url(#skin)"/>
    <path d="M289 201 C303 126 403 125 415 200 C389 179 336 176 289 201 Z" fill="#513631" opacity=".74"/>
    <path d="M307 219 C330 229 371 229 394 219" fill="none" stroke="#9c635e" stroke-width="7" stroke-linecap="round" opacity=".45"/>
    <circle cx="327" cy="204" r="6" fill="#302027" opacity=".72"/>
    <circle cx="373" cy="204" r="6" fill="#302027" opacity=".72"/>
    <path d="M331 246 C345 255 361 255 374 246" fill="none" stroke="#7e4b56" stroke-width="5" stroke-linecap="round"/>
  </g>
</svg>
