<svg xmlns="http://www.w3.org/2000/svg" viewBox="0 0 700 1100">
  <defs>
    <linearGradient id="skin" x1="0" x2="1" y1="0" y2="1">
      <stop offset="0" stop-color="#efc4ad"/>
      <stop offset="1" stop-color="#c78b78"/>
    </linearGradient>
    <filter id="soft" x="-20%" y="-20%" width="140%" height="140%">
      <feDropShadow dx="0" dy="18" stdDeviation="18" flood-color="#000" flood-opacity=".28"/>
    </filter>
  </defs>
  <g filter="url(#soft)">
    <ellipse cx="350" cy="1020" rx="138" ry="24" fill="#000" opacity=".24"/>
    <path d="M272 405 C230 523 222 657 247 792 L273 999 C278 1035 321 1032 322 996 L336 786 L363 786 L391 998 C397 1034 441 1032 439 994 L427 794 C471 651 461 521 428 405 Z" fill="url(#skin)"/>
    <path d="M271 367 C222 399 194 458 184 526 C181 548 208 558 220 539 C246 498 271 461 314 425 Z" fill="url(#skin)"/>
    <path d="M429 367 C478 399 506 458 516 526 C519 548 492 558 480 539 C454 498 429 461 386 425 Z" fill="url(#skin)"/>
    <path d="M268 359 C286 316 319 290 350 290 C381 290 414 316 432 359 C429 425 401 474 350 477 C299 474 271 425 268 359 Z" fill="url(#skin)"/>
    <rect x="320" y="266" width="60" height="72" rx="28" fill="url(#skin)"/>
    <circle cx="350" cy="209" r="72" fill="url(#skin)"/>
    <path d="M282 199 C291 124 395 110 424 181 C432 214 419 239 406 254 C392 203 336 178 282 199 Z" fill="#2a171d" opacity=".9"/>
    <circle cx="326" cy="205" r="6" fill="#2f2025"/>
    <circle cx="374" cy="205" r="6" fill="#2f2025"/>
    <path d="M327 247 C343 257 362 257 377 247" fill="none" stroke="#7c4251" stroke-width="5" stroke-linecap="round"/>
  </g>
</svg>
